<svg width="34" height="30" viewBox="0 0 34 30" fill="none" xmlns="http://www.w3.org/2000/svg">
<path d="M33.6967 10.0073C33.5831 9.87906 33.4431 9.77618 33.286 9.70556C33.129 9.63494 32.9585 9.59821 32.786 9.59781H26.0512L17.9109 0.406318C17.797 0.278616 17.6568 0.176341 17.4998 0.106286C17.3428 0.0362308 17.1725 0 17.0002 0C16.8279 0 16.6576 0.0362308 16.5006 0.106286C16.3436 0.176341 16.2034 0.278616 16.0895 0.406318L7.94915 9.59781H1.21438C1.04132 9.59779 0.870253 9.63434 0.712651 9.705C0.55505 9.77566 0.41455 9.8788 0.30057 10.0075C0.186589 10.1362 0.10176 10.2875 0.051768 10.4513C0.0017761 10.615 -0.0122239 10.7874 0.0107065 10.957L2.29813 27.9178C2.37793 28.4934 2.6655 29.0211 3.10787 29.4038C3.55024 29.7864 4.11762 29.9981 4.70547 30H29.2949C29.8828 29.9981 30.4501 29.7864 30.8925 29.4038C31.3349 29.0211 31.6225 28.4934 31.7023 27.9178L33.9897 10.957C34.0122 10.7872 33.9977 10.6146 33.9472 10.4508C33.8967 10.287 33.8113 10.1358 33.6967 10.0073ZM9.95729 25.1995C9.91634 25.2018 9.87529 25.2018 9.83434 25.1995C9.53227 25.201 9.24047 25.0911 9.01594 24.8914C8.7914 24.6917 8.65025 24.4164 8.62005 24.1194L7.77004 15.7185C7.73784 15.4018 7.83425 15.0854 8.03806 14.8389C8.24187 14.5925 8.5364 14.4362 8.85684 14.4043C9.17728 14.3725 9.49739 14.4678 9.74674 14.6692C9.9961 14.8706 10.1543 15.1617 10.1865 15.4784L11.0365 23.8793C11.0705 24.1958 10.9759 24.5127 10.7735 24.7603C10.5711 25.0079 10.2775 25.1659 9.95729 25.1995ZM18.2145 23.9994C18.2145 24.3176 18.0866 24.6229 17.8588 24.848C17.6311 25.073 17.3222 25.1995 17.0002 25.1995C16.6781 25.1995 16.3693 25.073 16.1416 24.848C15.9138 24.6229 15.7859 24.3176 15.7859 23.9994V15.5985C15.7859 15.2802 15.9138 14.9749 16.1416 14.7498C16.3693 14.5248 16.6781 14.3983 17.0002 14.3983C17.3222 14.3983 17.6311 14.5248 17.8588 14.7498C18.0866 14.9749 18.2145 15.2802 18.2145 15.5985V23.9994ZM11.1761 9.59781L17.0002 3.0196L22.8242 9.59781H11.1761ZM26.2228 15.7185L25.3727 24.1194C25.3427 24.4151 25.2026 24.6894 24.9797 24.8889C24.7567 25.0884 24.4668 25.1991 24.166 25.1995C24.1251 25.2018 24.084 25.2018 24.0431 25.1995C23.8844 25.1837 23.7305 25.1372 23.59 25.0627C23.4495 24.9881 23.3252 24.8869 23.2243 24.7649C23.1234 24.6428 23.0478 24.5024 23.0018 24.3515C22.9558 24.2005 22.9404 24.0422 22.9563 23.8853L23.8063 15.4844C23.8385 15.1677 23.9967 14.8766 24.2461 14.6752C24.4954 14.4738 24.8155 14.3785 25.136 14.4103C25.4564 14.4422 25.7509 14.5985 25.9547 14.8449C26.1586 15.0914 26.255 15.4078 26.2228 15.7245V15.7185Z" fill="white"/>
</svg>
