<svg width="46" height="46" viewBox="0 0 46 46" fill="none" xmlns="http://www.w3.org/2000/svg">
<g clip-path="url(#clip0_330_1052)">
<path d="M16.0051 9.7649L15.4951 10.0499L14.7151 7.6499L16.0051 9.7649Z" fill="white"/>
<path d="M16.9351 11.3252L16.0801 11.8052L15.6001 10.3652L16.1551 10.0352L16.9351 11.3252Z" fill="white"/>
<path d="M17.8799 12.8697L16.6499 13.5897L16.1699 12.1197L17.0999 11.5947L17.8799 12.8697Z" fill="white"/>
<path d="M18.8101 14.4303L17.2201 15.3453L16.7551 13.9053L18.0451 13.1553L18.8101 14.4303Z" fill="white"/>
<path d="M19.77 16.0048L17.805 17.1298L17.325 15.6598L18.99 14.7148L19.77 16.0048Z" fill="white"/>
<path d="M26.61 33.9L20.745 24.21H20.67C20.43 24.21 20.205 24.18 19.98 24.135C18.405 23.82 17.22 22.44 17.22 20.775C17.22 19.83 17.595 18.975 18.21 18.36L17.91 17.46L19.935 16.29L20.58 17.34C20.58 17.34 20.46 17.355 20.385 17.355C20.475 17.355 20.565 17.34 20.655 17.34C20.895 17.34 21.12 17.355 21.345 17.415C22.92 17.715 24.105 19.11 24.105 20.775C24.105 21.72 23.73 22.575 23.115 23.19L26.61 33.9Z" fill="white"/>
<path d="M20.9399 4.03516C30.2549 4.03516 37.8449 11.6102 37.8449 20.9402C37.8449 30.2702 30.2699 37.8452 20.9399 37.8452C11.6099 37.8452 4.03491 30.2552 4.03491 20.9402C4.03491 11.6252 11.6249 4.03516 20.9399 4.03516ZM20.9399 2.91016C10.9799 2.91016 2.90991 10.9802 2.90991 20.9402C2.90991 30.9002 10.9799 38.9702 20.9399 38.9702C30.8999 38.9702 38.9699 30.9002 38.9699 20.9402C38.9699 10.9802 30.8999 2.91016 20.9399 2.91016Z" fill="white"/>
<path d="M20.94 2.25C31.245 2.25 39.63 10.635 39.63 20.94C39.63 31.245 31.245 39.63 20.94 39.63C10.635 39.63 2.25 31.245 2.25 20.94C2.25 10.635 10.635 2.25 20.94 2.25ZM20.94 0C9.375 0 0 9.375 0 20.94C0 32.505 9.375 41.88 20.94 41.88C32.505 41.88 41.88 32.505 41.88 20.94C41.88 9.375 32.505 0 20.94 0Z" fill="white"/>
</g>
<defs>
<clipPath id="clip0_330_1052">
<rect width="42" height="42" fill="white"/>
</clipPath>
</defs>
</svg>
