<svg width="14" height="10" viewBox="0 0 14 10" fill="none" xmlns="http://www.w3.org/2000/svg">
<g clip-path="url(#clip0_4047_2494)">
<path d="M9.24047 3.62249C9.33119 3.62052 9.42191 3.61855 9.51297 3.61658H9.23633L9.24047 3.62249Z" fill="white"/>
<path d="M4.67969 3.60708H10.0267C9.85595 3.60984 9.68383 3.61339 9.51273 3.61655H11.8501C11.8518 3.61339 11.8532 3.61024 11.8549 3.60708H13.6328C13.6328 3.60708 13.5655 2.44022 13.1702 1.8418C13.0936 1.72582 12.9991 1.61773 12.8894 1.51675C11.9663 0.665071 9.986 0.326215 8.87734 0.12227C8.05016 -0.029604 6.94978 -0.0292095 5.95909 0.0650705C5.47203 0.111619 5.01153 0.180652 4.62312 0.265071C3.69349 0.467437 1.39787 0.965268 0.733155 1.9842C0.454094 2.41182 0.428223 3.60708 0.428223 3.60708H4.67969ZM8.82043 1.39485C8.93391 1.37118 9.09052 1.45639 9.09224 1.56724C9.09328 1.62996 8.98359 1.68203 8.92218 1.68124C8.80111 1.67967 8.62415 1.67257 8.62484 1.55264C8.62553 1.46902 8.74005 1.41182 8.82008 1.39485H8.82043ZM8.05051 0.616155C8.08397 0.559745 8.16813 0.521481 8.23126 0.508463C8.3375 0.486372 8.48169 0.559351 8.50066 0.659942C8.50204 0.666648 8.50307 0.673749 8.50307 0.68085C8.50411 0.743572 8.39476 0.795248 8.33336 0.794459C8.21229 0.792881 8.03533 0.785781 8.03602 0.665859C8.03602 0.648108 8.04154 0.63154 8.05051 0.616155ZM7.71108 1.24259C7.7335 1.23785 7.75834 1.23982 7.78214 1.24614C7.84112 1.26231 7.89493 1.30728 7.89562 1.36093C7.89562 1.40393 7.82112 1.43864 7.77938 1.43785C7.69728 1.43627 7.57655 1.43075 7.57758 1.34909C7.57827 1.29229 7.65658 1.25363 7.71073 1.24259H7.71108ZM6.88976 0.478483C7.0236 0.444952 7.21194 0.538838 7.21711 0.670593C7.21884 0.710435 7.18228 0.748305 7.13709 0.774735C7.09845 0.797615 7.05327 0.812211 7.01946 0.813C6.93184 0.814972 6.81939 0.816155 6.74419 0.783808C6.69659 0.763295 6.66417 0.729765 6.66313 0.674143C6.66106 0.57513 6.79525 0.502151 6.88976 0.478483ZM6.1702 1.24259C6.28024 1.21497 6.43512 1.29189 6.43961 1.40038C6.44202 1.46152 6.33647 1.51596 6.27679 1.51754C6.15882 1.52069 5.986 1.5203 5.98393 1.40353C5.98221 1.32188 6.09259 1.26191 6.1702 1.24259ZM4.59242 1.6059C4.69142 1.60748 4.79766 1.66902 4.80559 1.75777C4.81111 1.8201 4.70556 1.88361 4.64485 1.88913C4.52412 1.90057 4.34716 1.91241 4.33957 1.79288C4.33819 1.76961 4.34578 1.74752 4.35889 1.7274C4.43202 1.7057 4.5148 1.66586 4.59276 1.6059H4.59242ZM3.35509 1.87493C3.23436 1.88874 3.05775 1.90452 3.04844 1.78499C3.04188 1.70176 3.15123 1.63036 3.22884 1.60353C3.26092 1.59249 3.29783 1.59012 3.33336 1.59485L3.35509 1.87493L3.33371 1.59485C3.42201 1.60669 3.50618 1.66152 3.51377 1.74002C3.52032 1.80235 3.41546 1.86783 3.35475 1.87493H3.35509ZM3.94944 1.16763C3.9415 1.14081 3.93529 1.1132 3.9315 1.08519C3.93046 1.07612 3.92943 1.06744 3.92874 1.05836C3.92771 1.04811 3.92702 1.03746 3.92633 1.0272C4.06775 0.992092 4.20194 0.960534 4.32681 0.932132C4.3306 0.950278 4.33405 0.969212 4.33578 0.988542C4.33888 1.01458 4.34026 1.04022 4.33992 1.06468C4.27403 1.09189 4.21367 1.12661 4.15951 1.16803C4.08707 1.17829 4.00842 1.1842 3.94978 1.16803L3.94944 1.16763Z" fill="white"/>
<path d="M11.8429 7.18811H0.397949V9.14551C0.397949 9.6173 0.710126 9.99994 1.09509 9.99994H12.9054C13.2903 9.99994 13.6025 9.6173 13.6025 9.14551V7.18811H11.8429Z" fill="white"/>
<path d="M4.8018 4.93731C5.53447 4.92153 6.26713 4.90299 7.00014 4.89391C8.05085 4.87143 9.10087 4.86748 10.1516 4.87024C10.3103 4.87064 10.4693 4.87103 10.6279 4.87182L10.6179 4.85802L10.1367 4.19884L10.1354 4.19727C10.1043 4.19766 10.074 4.19805 10.0429 4.19884H9.6614L9.66623 4.20555C8.77731 4.22251 7.88907 4.24697 7.00014 4.25802C6.4979 4.26906 5.99531 4.27537 5.49307 4.27892H5.45961C5.13088 4.28129 4.80214 4.28247 4.47341 4.28247C3.04188 4.28326 1.61001 4.26788 0.178481 4.26788C0.0801709 4.26748 0.000488281 4.3093 0.000488281 4.36058V4.80239C0.000488281 4.84894 0.067063 4.88878 0.156404 4.89431C0.242296 4.89983 0.328532 4.90496 0.414424 4.9093C1.877 4.99016 3.33957 4.96847 4.80214 4.93731H4.8018Z" fill="white"/>
<path d="M13.9988 4.33851C13.9891 4.29669 13.9263 4.26277 13.8442 4.25764C13.7608 4.25251 13.6776 4.24738 13.5942 4.24304L13.1454 4.85803L13.1274 4.88288C13.2606 4.88328 13.3941 4.88367 13.5276 4.88367H13.5286C13.5486 4.88959 13.5679 4.89669 13.5866 4.90458L13.6017 4.88367C13.6752 4.88407 13.7487 4.88407 13.8222 4.88407C13.9205 4.88407 14.0005 4.84265 14.0005 4.79137V4.34955C14.0005 4.346 14.0005 4.34206 13.9991 4.33851H13.9988Z" fill="white"/>
<path d="M12.6967 5.47298L11.8815 6.59014L11.0609 5.46549L11.0492 5.44971H0.654221C0.602479 5.44971 0.554876 5.47101 0.516587 5.5073C0.462086 5.55779 0.427246 5.63787 0.427246 5.72821V6.39685C0.427246 6.47535 0.453462 6.54635 0.49658 6.59645C0.537284 6.64537 0.593165 6.67535 0.654566 6.67535H13.3579C13.4193 6.67535 13.4752 6.64537 13.5159 6.59645C13.5587 6.54635 13.5852 6.47535 13.5852 6.39685V5.72821C13.5852 5.61578 13.5311 5.51914 13.4531 5.47535C13.4241 5.45878 13.3921 5.44971 13.3583 5.44971H12.7142L12.6973 5.47298H12.6967Z" fill="white"/>
<path d="M13.3133 4.20674C12.6655 4.19451 11.5475 4.20279 10.8835 4.20674H10.4492L10.8832 4.74441C11.1339 5.05842 11.6248 5.66197 11.8811 5.98189C12.3071 5.45289 12.8894 4.73297 13.3133 4.20674Z" fill="white"/>
</g>
<defs>
<clipPath id="clip0_4047_2494">
<rect width="14" height="10" fill="white"/>
</clipPath>
</defs>
</svg>
